# xmcd
#
# Track frame offsets:
#	150
#	40519
#	51856
#	68696
#	92218
#	109467
#	140014
#	151695
#	164102
#	177366
#	210695
#
# Disc length: 3924 seconds
#
# Revision: 0
# Processed by: cddbd v1.5.1PL0 Copyright (c) Steve Scherf et al.
# Submitted via: dBpowerAMP V4.0
#
DISCID=9b0f520b
DTITLE=anton reixa - escarnio
DYEAR=1900
DGENRE=
TTITLE0=haiku
TTITLE1=ollos que non ven
TTITLE2=fatima
TTITLE3=planeta azul
TTITLE4=aerobic torpeza
TTITLE5=deserto
TTITLE6=clima
TTITLE7=lupa
TTITLE8=obreiros
TTITLE9=nordesia
TTITLE10=DATA
EXTD=anton reixa - escarnio
EXTT0=
EXTT1=
EXTT2=
EXTT3=
EXTT4=
EXTT5=
EXTT6=
EXTT7=
EXTT8=
EXTT9=
EXTT10=
PLAYORDER=
